<?xml version="1.0" standalone="no"?><!DOCTYPE svg PUBLIC "-//W3C//DTD SVG 1.1//EN" "http://www.w3.org/Graphics/SVG/1.1/DTD/svg11.dtd"><svg t="1694933563574" class="icon" viewBox="0 0 1024 1024" version="1.1" xmlns="http://www.w3.org/2000/svg" p-id="13044" width="64" height="64" data-spm-anchor-id="a313x.search_index.0.i12.5ea33a817iOtzX" xmlns:xlink="http://www.w3.org/1999/xlink"><path d="M792.506274 1024c-29.452508 0-65.679221-1.986421-108.310868-4.609515-40.963562-2.546693-83.327806-5.093387-100.352451-2.737695a516.978747 516.978747 0 0 1-71.893153 5.016986 510.803016 510.803016 0 1 1 333.922431-124.214968c1.94822 7.028874 13.064537 21.825162 19.278468 30.089182 15.471162 20.590016 30.089182 40.034019 24.906661 61.056973-1.833619 7.423611-6.952473 17.674052-20.946553 24.308188l-2.90323 1.36248c-15.356561 7.143475-40.123154 9.728369-73.701305 9.728369zM603.936366 971.14338c22.067098 0 51.073935 1.782685 83.04767 3.756372 53.060356 3.272501 131.969649 8.123952 157.130978 0.216469-3.578104-6.201198-10.186773-14.936356-14.554352-20.806484-9.015294-11.994926-18.348925-24.410056-23.760649-37.20719-3.82004-9.040761-5.309856-17.317515-4.558581-25.314132a39.932152 39.932152 0 0 1 14.197815-26.918548 466.274083 466.274083 0 1 0-303.425777 112.232775 472.411614 472.411614 0 0 0 65.666488-4.584048 197.368734 197.368734 0 0 1 26.256408-1.375214z" p-id="13045" fill="#d81e06" data-spm-anchor-id="a313x.search_index.0.i13.5ea33a817iOtzX" class="selected"></path><path d="M486.915807 705.204928a22.283567 22.283567 0 0 1-22.283567-22.283567 174.957832 174.957832 0 0 1 107.865197-161.893295q0.649407-0.267403 1.273346-0.509339c2.648561-0.904076 5.233455-1.897287 7.64008-2.94143a130.823637 130.823637 0 1 0-181.108096-120.789665 22.283567 22.283567 0 0 1-44.567134 0c0-96.710679 78.680091-175.378037 175.378037-175.378037s175.378037 78.680091 175.378036 175.378037a174.957832 174.957832 0 0 1-107.865196 161.893295c-3.094232 1.273347-6.366733 2.546693-9.690168 3.718172a130.5053 130.5053 0 0 0-79.85157 120.509529 22.283567 22.283567 0 0 1-22.168965 22.2963z" p-id="13046" fill="#d81e06" data-spm-anchor-id="a313x.search_index.0.i15.5ea33a817iOtzX" class="selected"></path><path d="M490.442977 766.198234m-30.22925 0a30.22925 30.22925 0 1 0 60.4585 0 30.22925 30.22925 0 1 0-60.4585 0Z" p-id="13047" fill="#d81e06" data-spm-anchor-id="a313x.search_index.0.i16.5ea33a817iOtzX" class="selected"></path></svg>