<?xml version="1.0" encoding="UTF-8"?>
<svg width="16px" height="16px" viewBox="0 0 16 16" version="1.1" xmlns="http://www.w3.org/2000/svg" xmlns:xlink="http://www.w3.org/1999/xlink">
    <title>免费积分</title>
    <defs>
        <linearGradient x1="0%" y1="58.9115356%" x2="100%" y2="58.9115356%" id="linearGradient-1">
            <!-- <stop stop-color="#E8BA89" offset="0%"></stop>
            <stop stop-color="#CD8451" offset="100%"></stop> -->
        </linearGradient>
    </defs>
    <g id="页面-1" stroke="none" stroke-width="1" fill="none" fill-rule="evenodd">
        <g id="个人中心-消费记录备份-2" transform="translate(-16.000000, -260.000000)">
            <g id="侧边栏--principle-flatten" transform="translate(0.000000, 56.000000)">
                <g id="编组-4" transform="translate(16.000000, 202.000000)">
                    <g id="免费积分" transform="translate(0.000000, 2.000000)">
                        <rect id="矩形" fill="url(#linearGradient-1)" opacity="0.328696405" x="0" y="0" width="16" height="16" rx="3"></rect>
                        <g id="编组" transform="translate(3.000000, 4.000000)" fill-rule="nonzero">
                            <path d="M8.156,4.2326 C8.27110295,4.04405933 8.5172482,3.98451528 8.7058,4.0996 C9.5212,4.597 10,5.2606 10,6 C10,7.61679999 7.7324,8.8 5,8.8 C2.2676,8.8 0,7.6168 0,6 C0,5.265 0.4734,4.6046 1.2804,4.108 C1.46856341,3.99224112 1.71494111,4.05093659 1.8307,4.2391 C1.94645889,4.42726341 1.88776342,4.67364111 1.69960001,4.7894 C1.1076,5.1536 0.800000003,5.5828 0.800000003,6 C0.800000003,7.034 2.6514,8 5,8 C7.3486,8 9.2,7.034 9.2,6 C9.2,5.58 8.88839999,5.148 8.28899999,4.7824 C8.10045932,4.66729705 8.04091528,4.4211518 8.156,4.2326 Z" id="路径" fill="#0E1216"></path>
                            <path d="M5,4.26325641e-16 C2.2676,4.26325641e-16 0,1.1832 0,2.80000001 C0,4.41680001 2.2676,5.6 5,5.6 C7.7324,5.6 10,4.4168 10,2.80000001 C10,1.18320001 7.7324,4.26325641e-16 5,4.26325641e-16 Z M5,0.800000003 C7.3486,0.800000003 9.2,1.766 9.2,2.8 C9.2,3.83400001 7.3486,4.8 5,4.8 C2.6514,4.8 0.800000003,3.834 0.800000003,2.8 C0.800000003,1.778 2.60800001,0.822800003 4.9174,0.800399999 L5,0.800000003 Z" id="形状" fill="#0E1216"></path>
                            <path d="M4.37,3.9988 L4.2956,3.9958 C4.18756273,3.98926343 4.07972296,3.97979327 3.9722,3.9674 C3.6646,3.9328 3.35620001,3.8766 3.0648,3.7934 C2.38839999,3.6 1.88979999,3.291 1.6662,2.804 L1.64320001,2.7512 L2.384,2.4488 C2.4792,2.68240001 2.7972,2.8848 3.2846,3.024 C3.52900001,3.09399999 3.7952,3.1424 4.062,3.17260001 C4.1324,3.18060001 4.1988,3.18660001 4.2602,3.1914 L4.3674,3.1982 L4.4106,3.20020001 C4.55514461,3.20153828 4.68772196,3.28075817 4.75738347,3.40741602 C4.82704498,3.53407387 4.82295164,3.68846231 4.74667649,3.8112509 C4.67040135,3.9340395 4.53381246,4.00612292 4.3894,3.9998 L4.3722,3.999 L4.37,3.999 L4.37,3.9988 Z" id="路径" fill="#CD8451"></path>
                        </g>
                    </g>
                </g>
            </g>
        </g>
    </g>
</svg>