<?xml version="1.0" standalone="no"?><!DOCTYPE svg PUBLIC "-//W3C//DTD SVG 1.1//EN" "http://www.w3.org/Graphics/SVG/1.1/DTD/svg11.dtd"><svg t="1693359507307" class="icon" viewBox="0 0 1024 1024" version="1.1" xmlns="http://www.w3.org/2000/svg" p-id="11632" width="16" height="16" data-spm-anchor-id="a313x.search_index.0.i9.75443a81BgwGMU" xmlns:xlink="http://www.w3.org/1999/xlink"><path d="M781.312 497.7152a34.133333 34.133333 0 0 1 46.916267-11.349333C897.809067 528.810667 938.666667 585.437867 938.666667 648.533333c0 137.966933-193.501867 238.933333-426.666667 238.933334S85.333333 786.500267 85.333333 648.533333c0-62.72 40.3968-119.074133 109.2608-161.450666a34.133333 34.133333 0 1 1 35.771734 58.146133C179.848533 576.3072 153.6 612.932267 153.6 648.533333c0 88.234667 157.986133 170.666667 358.4 170.666667s358.4-82.432 358.4-170.666667c0-35.84-26.589867-72.704-77.738667-103.901866a34.133333 34.133333 0 0 1-11.349333-46.916267z" fill="#444444" p-id="11633"></path><path d="M512 136.533333C278.8352 136.533333 85.333333 237.499733 85.333333 375.466667s193.501867 238.933333 426.666667 238.933333 426.666667-100.9664 426.666667-238.933333S745.1648 136.533333 512 136.533333z m0 68.266667c200.413867 0 358.4 82.432 358.4 170.666667s-157.986133 170.666667-358.4 170.666666S153.6 463.701333 153.6 375.466667c0-87.210667 154.282667-168.721067 351.351467-170.632534L512 204.8z" fill="#444444" p-id="11634"></path><path d="M458.24 477.764267l-6.3488-0.256a510.0032 510.0032 0 0 1-27.5968-2.423467c-26.248533-2.952533-52.565333-7.748267-77.431467-14.848-57.719467-16.503467-100.266667-42.871467-119.3472-84.4288l-1.962666-4.5056 63.214933-25.8048c8.123733 19.933867 35.259733 37.205333 76.8512 49.083733 20.855467 5.973333 43.5712 10.103467 66.338133 12.680534 6.007467 0.682667 11.6736 1.194667 16.913067 1.604266l9.147733 0.580267 3.6864 0.170667a34.133333 34.133333 0 1 1-1.809066 68.232533l-1.467734-0.068267h-0.187733z" fill="#d81e06" p-id="11635" data-spm-anchor-id="a313x.search_index.0.i11.75443a81BgwGMU" class="selected"></path></svg>